<svg xmlns="http://www.w3.org/2000/svg" width="100%" height="100%" viewBox="0 0 2560 1440" fill-rule="evenodd" stroke-linejoin="round" stroke-miterlimit="2" xmlns:v="https://vecta.io/nano"><g transform="matrix(2.57167 0 0 2.57167 -263 -244.377)"><clipPath id="A"><path d="M1085.65 62.5H114.352C106.426 62.5 100 68.926 100 76.853v596.295c0 7.926 6.427 14.352 14.353 14.352h971.298c7.92 0 14.35-6.426 14.35-14.352V76.853c0-7.927-6.43-14.352-14.35-14.352z"/></clipPath><g clip-path="url(#A)" fill-rule="nonzero"><path d="M89.377 35.732h1025.3v669.065H89.377z" fill="#f4d35e"/><path d="M1623.66 676.397l-422.7 152.35c-5.75 2.074-12.2.553-16.4-3.878L760 378.773c-7.68-8.07-4.537-21.374 5.945-25.15l422.705-152.35a15.43 15.43 0 0 1 16.41 3.878l424.55 446.097c7.7 8.07 4.54 21.373-5.94 25.15z" fill="#608cb8"/><path d="M785.28 249.53v115.3l358.94 377.148 359.73-111.57-431.88-442.595-286.79 61.727z" fill="#fffcf3"/><path d="M1595.07 522.35L1194.9 666.576a15.42 15.42 0 0 1-16.4-3.879L776.154 239.94c-7.68-8.07-4.537-21.374 5.946-25.15l400.16-144.226c5.76-2.074 12.2-.553 16.4 3.878L1601 497.198c7.7 8.07 4.54 21.373-5.94 25.152z" fill="#608cb8"/><path d="M886.465 979.59L454.58 1135.25 28.995 688.07 460.88 532.41l425.586 447.18z" fill="#fffcf3"/><path d="M774.277 474.988c-1.552-1.632-3.92-2.197-6.04-1.445l-92.863 32.914-13.442-6.648v15.553l.005.006c.023 1.353.522 2.718 1.57 3.82L1089.9 967.212l114.28-40.506-429.903-451.718z" fill="#b34949"/><path d="M1204.18 910.25l-114.28 40.506L663.506 502.73c-2.85-2.995-1.67-7.932 2.227-9.313l102.503-36.33c2.122-.752 4.49-.187 6.04 1.445L1204.18 910.25z" fill="#ce5b5b"/><path d="M509.817 473.607c-2.346-1.383-5.046 1.154-3.8 3.58l9.815 14.996 8.84-8.822-14.846-9.755z" fill="#434244"/><path d="M558.704 505.73l-34.04-22.37-8.84 8.822 22.877 34.952 20.005-21.405z" fill="#f7e8cb"/><path d="M540.67 529.698l402.582 423.01c4.122 4.332 10.4 5.846 16.044 3.868l.033-.013-421.702-443.1c-2.133 5.25-1.36 11.607 3.043 16.235z" fill="#2b7a60"/><path d="M966.632 933.153L564.05 510.145c-5.47-5.748-11.75-7.262-17.392-5.285-.216.076-.41.18-.618.262l422.026 443.44c2.445-5.357 1.79-12.022-1.434-15.4z" fill="#51b594"/><path d="M968.066 948.563L546.04 505.122c-4.056 1.62-6.936 4.704-8.414 8.34l421.702 443.1c4.145-1.463 7.117-4.445 8.738-8z" fill="#3e977d"/><g fill="#e27979"><path d="M747.858 477.97l20.37-7.4 5.35 5.54-20.2 7.605-5.523-5.735zm22.578 23.62l20.37-7.4 5.35 5.54-20.2 7.605-5.52-5.734zm22.577 23.617l20.37-7.4 5.35 5.54-20.2 7.605-5.52-5.735zm22.577 23.62l20.37-7.4 5.352 5.54-20.2 7.606-5.522-5.735zm22.576 23.618l20.37-7.4 5.352 5.54-20.2 7.606-5.522-5.736zm22.577 23.62l20.37-7.4 5.352 5.54-20.2 7.606-5.523-5.735zm22.577 23.62l20.37-7.4 5.352 5.54-20.2 7.605-5.522-5.735zm22.577 23.618l20.37-7.4 5.35 5.54-20.2 7.605-5.522-5.734z"/></g><path d="M598.315 439.145c-4.447 1.726-9.422.473-12.697-3.2l-38.495-43.158c-2.817-3.158-3.76-7.286-3.145-11.1l-.198.005V417.9l.182.094c-.58 3.796.368 7.88 3.16 11l38.495 43.16c3.275 3.672 8.25 4.925 12.697 3.2l39.025-15.146V424l-39.025 15.144z" fill="#b34949"/><path d="M728.443 377.25c.955 5.864-1.926 12.143-7.72 14.39l-79.643 30.907v36.207l79.643-30.907c4.33-1.68 7.024-5.62 7.72-9.948h.2v-40.645l-.2.005z" fill="#2b7a60"/><path d="M547.123 392.788l38.495 43.158c3.275 3.672 8.25 4.925 12.697 3.2L637.34 424v-6.747c0-3.19-1.157-6.266-3.26-8.665l-24.947-28.475-20.22-22.894s-32.57 12.117-40.06 16.194c-2.81 1.53-4.876 8.264-4.876 8.264-.614 3.824.328 7.952 3.145 11.1z" fill="#ce5b5b"/><path d="M728.443 377.25c-.39-2.394-1.402-4.72-3.142-6.672l-38.496-43.16c-3.275-3.67-8.25-4.924-12.698-3.198l-81.32 31.56 44.108 50.344c2.7 3.08 4.185 7.033 4.185 11.13v5.294l79.643-30.907c5.793-2.248 8.674-8.527 7.72-14.39z" fill="#3e977d"/><path d="M636.896 406.124l-44.108-50.344-1.203.467-2.5.973 45.006 51.37c2.102 2.4 3.26 5.476 3.26 8.665v42.953l3.74-1.452v-41.5c0-4.097-1.486-8.05-4.185-11.13z" fill="#fffcf3"/><g fill="#f7f1e2"><path d="M1095.12 621.445c-17-18.172-35.63-34.86-53.6-52.066l-53.5-52.186-105.5-104.08c-20.4-19.476-41.598-38.044-63.17-56.212-1.347-1.134-3.282.72-1.963 1.963C889.607 426.9 957.928 498.9 1026.2 570.838c19.34 20.374 38.46 41.396 59.85 59.668 6.22 5.312 14.77-2.965 9.06-9.06zm-6.06-36.795c-10.1-13.644-23.4-25.324-35.47-37.182-12.17-11.946-24.54-23.65-37.08-35.2-25.4-23.414-51.395-46.173-77.877-68.37-.9-.753-2.173.46-1.3 1.3 24.297 23.86 48.216 48.12 71.756 72.732l34.3 36.22c11.82 12.544 23 26.725 36.25 37.78 4.8 4 13.82-1.376 9.44-7.3z"/></g></g></g></svg>